<svg xmlns="http://www.w3.org/2000/svg" width="512" height="512" viewBox="0 0 512 512" version="1.1"><path d="M 397 110 L 397 117 404 117 L 411 117 411 110 L 411 103 404 103 L 397 103 397 110 M 412 139 L 412 146 419 146 L 426 146 426 139 L 426 132 419 132 L 412 132 412 139" stroke="none" fill="#ffffff" fill-rule="evenodd"/><path d="M 299.750 46.723 C 301.538 46.945, 304.462 46.945, 306.250 46.723 C 308.038 46.502, 306.575 46.320, 303 46.320 C 299.425 46.320, 297.962 46.502, 299.750 46.723 M 160.310 108.735 C 155.998 113.556, 150.334 120.284, 147.724 123.688 C 145.115 127.091, 140.778 133.423, 138.089 137.760 C 135.399 142.097, 131.185 149.663, 128.725 154.573 C 126.265 159.483, 122.656 167.775, 120.705 173 C 118.754 178.225, 115.983 187.140, 114.546 192.812 C 113.109 198.483, 111.239 207.933, 110.389 213.812 C 109.496 219.991, 108.839 231.460, 108.833 241 C 108.827 251.130, 109.440 261.554, 110.421 268 C 111.300 273.775, 112.578 280.750, 113.260 283.500 L 114.500 288.500 129.042 296 L 143.585 303.500 141.755 298 C 140.748 294.975, 138.818 287.100, 137.466 280.500 C 136.113 273.900, 134.477 262.095, 133.830 254.266 C 132.919 243.226, 132.929 236.719, 133.875 225.266 C 134.545 217.145, 135.454 208.925, 135.893 207 C 136.570 204.036, 136.316 203.092, 134.237 200.832 L 131.783 198.164 135.141 196.376 C 136.989 195.393, 138.725 194.641, 139 194.705 C 139.275 194.769, 139.562 193.158, 139.637 191.125 C 139.712 189.092, 141.410 182.495, 143.410 176.464 C 145.410 170.434, 149.914 159.650, 153.419 152.500 C 156.925 145.350, 162.461 135.450, 165.722 130.500 C 168.983 125.550, 173.980 118.707, 176.826 115.294 C 179.671 111.880, 182 108.674, 182 108.168 C 182 107.662, 178.884 105.610, 175.075 103.609 L 168.151 99.970 160.310 108.735 M 240.252 156.500 C 240.263 158.700, 240.468 159.482, 240.707 158.238 C 240.946 156.994, 240.937 155.194, 240.687 154.238 C 240.437 153.282, 240.241 154.300, 240.252 156.500 M 242.762 164.707 C 244.006 164.946, 245.806 164.937, 246.762 164.687 C 247.718 164.437, 246.700 164.241, 244.500 164.252 C 242.300 164.263, 241.518 164.468, 242.762 164.707 M 242.252 192.500 C 242.263 194.700, 242.468 195.482, 242.707 194.238 C 242.946 192.994, 242.937 191.194, 242.687 190.238 C 242.437 189.282, 242.241 190.300, 242.252 192.500 M 199.982 267.250 C 205.747 273.163, 210.585 278, 210.732 278 C 210.879 278, 211 277.879, 211 277.732 C 211 277.585, 206.162 272.747, 200.250 266.982 L 189.500 256.500 199.982 267.250 M 263.881 349.219 C 264.342 351.996, 264.482 352.136, 264.797 350.135 C 265.002 348.834, 264.757 347.357, 264.253 346.853 C 263.698 346.298, 263.552 347.231, 263.881 349.219 M 439.971 377.750 L 433.500 384.500 440.250 378.029 C 443.962 374.470, 447 371.432, 447 371.279 C 447 371.125, 446.875 371, 446.721 371 C 446.568 371, 443.530 374.038, 439.971 377.750 M 250.320 384 C 250.320 387.575, 250.502 389.038, 250.723 387.250 C 250.945 385.462, 250.945 382.538, 250.723 380.750 C 250.502 378.962, 250.320 380.425, 250.320 384 M 192.250 393.562 C 189.363 394.882, 187 396.203, 187 396.499 C 187 396.795, 191.162 399.775, 196.250 403.121 C 201.338 406.467, 210.900 411.836, 217.500 415.052 C 224.100 418.268, 234.156 422.497, 239.847 424.450 C 245.538 426.402, 250.600 428, 251.097 428 C 251.594 428, 252 427.329, 252 426.509 C 252 425.625, 248.031 423.022, 242.250 420.114 C 236.887 417.417, 228.450 412.534, 223.500 409.264 C 218.550 405.994, 211.125 400.547, 207 397.160 C 202.875 393.773, 199.050 391.039, 198.500 391.083 C 197.950 391.128, 195.137 392.243, 192.250 393.562 M 266.232 409 C 266.232 410.925, 266.438 411.712, 266.689 410.750 C 266.941 409.788, 266.941 408.212, 266.689 407.250 C 266.438 406.288, 266.232 407.075, 266.232 409 M 251.320 415 C 251.320 418.575, 251.502 420.038, 251.723 418.250 C 251.945 416.462, 251.945 413.538, 251.723 411.750 C 251.502 409.962, 251.320 411.425, 251.320 415" stroke="none" fill="#52cd8d" fill-rule="evenodd"/><path d="M 353.989 78.781 L 326.478 93.500 328.168 113.845 C 329.097 125.035, 330.002 134.295, 330.179 134.422 C 330.355 134.549, 342.538 141.539, 357.250 149.954 C 371.962 158.369, 384 165.565, 384 165.945 C 384 166.324, 382.441 175.133, 380.536 185.520 C 378.630 195.907, 377.209 204.543, 377.378 204.711 C 377.546 204.879, 381.017 203.637, 385.092 201.951 C 389.166 200.264, 396.775 197.738, 402 196.337 C 409.444 194.340, 414.747 193.679, 426.500 193.283 C 437.822 192.901, 443.820 193.181, 450.961 194.425 C 456.164 195.331, 464.356 197.391, 469.164 199.001 C 473.972 200.612, 481.527 203.751, 485.953 205.976 C 490.379 208.202, 494 209.559, 494 208.994 C 494 208.428, 493.063 203.641, 491.918 198.357 C 490.773 193.072, 488.033 183.517, 485.829 177.124 C 483.625 170.731, 479.378 160.598, 476.391 154.606 C 473.404 148.614, 468.127 139.389, 464.664 134.106 C 461.201 128.823, 454.932 120.406, 450.732 115.402 C 446.532 110.398, 440.337 103.750, 436.966 100.629 C 433.594 97.508, 427.835 92.545, 424.168 89.601 C 420.501 86.657, 414.125 81.996, 410 79.243 C 405.875 76.490, 398.188 71.934, 392.917 69.119 C 387.646 66.303, 382.921 64.014, 382.417 64.031 C 381.913 64.049, 369.120 70.686, 353.989 78.781 M 396.208 109.750 L 396.500 117.500 403.750 117.794 L 411 118.088 411 110.044 L 411 102 403.458 102 L 395.916 102 396.208 109.750 M 176.367 115.835 C 172.994 120.051, 167.988 126.958, 165.243 131.185 C 162.498 135.412, 157.935 143.382, 155.103 148.895 C 152.271 154.408, 148.376 163.005, 146.447 168 C 144.518 172.994, 141.870 181.077, 140.563 185.962 L 138.186 194.845 145.843 191.536 C 150.054 189.716, 159.325 185.701, 166.444 182.614 C 173.563 179.526, 179.802 177, 180.309 177 C 180.816 177, 194.825 182.625, 211.441 189.500 C 228.057 196.375, 241.896 202, 242.194 202 C 242.492 202, 242.508 196.825, 242.229 190.500 L 241.721 179 245.361 179 L 249 179 249 172 L 249 165 245.125 165 L 241.250 165 240.625 161.875 C 240.281 160.156, 239.955 155.319, 239.900 151.125 C 239.845 146.931, 239.505 142.449, 239.144 141.165 C 238.646 139.392, 233.677 136.186, 218.494 127.839 C 207.497 121.794, 194.900 114.895, 190.500 112.509 L 182.500 108.170 176.367 115.835 M 411.706 131.627 C 411.318 132.015, 411 135.652, 411 139.709 L 411 147.084 418.750 146.792 L 426.500 146.500 426.500 139 L 426.500 131.500 419.456 131.210 C 415.582 131.051, 412.095 131.239, 411.706 131.627 M 135.634 207.750 C 135.289 209.813, 134.477 217.912, 133.829 225.750 C 132.927 236.677, 132.927 243.323, 133.829 254.250 C 134.476 262.087, 136.074 273.675, 137.380 280 C 138.686 286.325, 140.517 294.089, 141.449 297.253 C 142.381 300.418, 143.932 303.429, 144.896 303.944 C 146.228 304.657, 154.243 301.603, 178.277 291.227 C 195.672 283.716, 209.651 277.330, 209.342 277.036 C 209.032 276.741, 192.790 260.188, 173.247 240.250 C 153.705 220.313, 137.389 204, 136.989 204 C 136.589 204, 135.979 205.688, 135.634 207.750 M 457.891 279.268 L 421.283 295.160 425.136 308.330 C 427.255 315.574, 429.077 322.400, 429.184 323.500 C 429.309 324.785, 421.800 334.884, 408.189 351.734 C 396.535 366.163, 387.006 378.313, 387.012 378.734 C 387.019 379.155, 388.707 380.598, 390.762 381.940 C 392.818 383.282, 399.334 387.501, 405.241 391.317 L 415.982 398.254 421.741 393.949 C 424.909 391.581, 432.924 384.212, 439.553 377.572 C 446.183 370.932, 454.568 361.520, 458.187 356.656 C 461.806 351.791, 467.558 342.935, 470.970 336.975 C 474.381 331.015, 479.193 321.270, 481.663 315.319 C 484.134 309.369, 487.666 299.016, 489.513 292.313 C 491.361 285.609, 493.406 276.477, 494.058 272.018 C 494.710 267.558, 495.076 263.790, 494.872 263.643 C 494.667 263.497, 478.026 270.528, 457.891 279.268 M 225.500 379.735 C 212.300 385.436, 201.175 390.425, 200.779 390.822 C 200.382 391.218, 203.757 394.516, 208.279 398.152 C 212.800 401.787, 220.325 407.236, 225 410.261 C 229.675 413.287, 237.550 417.789, 242.500 420.266 L 251.500 424.769 251.167 412.635 C 250.985 405.961, 250.535 393.496, 250.167 384.935 L 249.500 369.369 225.500 379.735" stroke="none" fill="#9ce3bf" fill-rule="evenodd"/><path d="M 254.500 52.944 C 248.450 54.513, 239.717 57.207, 235.094 58.931 C 230.470 60.655, 222.595 64.038, 217.594 66.449 C 212.592 68.860, 204.516 73.344, 199.647 76.414 C 194.778 79.483, 188.641 83.708, 186.009 85.804 L 181.224 89.613 187.458 92.978 L 193.692 96.342 201.259 89.742 C 205.421 86.112, 212.128 80.713, 216.163 77.743 C 220.198 74.773, 226.875 70.305, 231 67.814 C 235.125 65.323, 240.956 62.041, 243.957 60.521 C 246.958 59.001, 253.708 56.019, 258.957 53.896 C 264.206 51.773, 267.825 50.048, 267 50.063 C 266.175 50.078, 260.550 51.375, 254.500 52.944 M 190 235.500 C 207.318 252.825, 221.713 267, 221.988 267 C 222.263 267, 208.318 252.825, 191 235.500 C 173.682 218.175, 159.287 204, 159.012 204 C 158.737 204, 172.682 218.175, 190 235.500 M 175 242.275 C 175 242.426, 178.488 245.914, 182.750 250.025 L 190.500 257.500 183.025 249.750 C 178.914 245.488, 175.426 242, 175.275 242 C 175.124 242, 175 242.124, 175 242.275 M 265.252 372.500 C 265.263 374.700, 265.468 375.482, 265.707 374.238 C 265.946 372.994, 265.937 371.194, 265.687 370.238 C 265.437 369.282, 265.241 370.300, 265.252 372.500 M 266.252 402.500 C 266.263 404.700, 266.468 405.482, 266.707 404.238 C 266.946 402.994, 266.937 401.194, 266.687 400.238 C 266.437 399.282, 266.241 400.300, 266.252 402.500 M 267.252 433.500 C 267.263 435.700, 267.468 436.482, 267.707 435.238 C 267.946 433.994, 267.937 432.194, 267.687 431.238 C 267.437 430.282, 267.241 431.300, 267.252 433.500" stroke="none" fill="#83c8f1" fill-rule="evenodd"/><path d="M 278.500 48.443 C 272.858 49.215, 265.955 51.079, 260 53.437 C 254.775 55.507, 246.225 59.459, 241 62.219 C 235.775 64.979, 228.125 69.488, 224 72.239 C 219.875 74.990, 212.450 80.519, 207.500 84.525 C 202.550 88.532, 197.524 92.865, 196.332 94.155 L 194.164 96.500 224.107 112.886 C 240.575 121.898, 254.228 129.560, 254.446 129.913 C 254.665 130.266, 255.166 138.047, 255.562 147.204 L 256.280 163.852 252.890 164.176 L 249.500 164.500 249.204 171.846 L 248.909 179.191 252.894 178.518 L 256.880 177.844 257.390 181.172 C 257.670 183.003, 258.171 189.900, 258.503 196.500 C 258.836 203.100, 259.421 208.788, 259.804 209.139 C 260.187 209.491, 272.723 214.814, 287.662 220.969 L 314.823 232.159 337.235 222.471 L 359.646 212.784 363.103 193.142 L 366.559 173.500 340.814 158.690 L 315.068 143.880 314.564 140.690 C 314.286 138.935, 313.146 126.248, 312.030 112.496 C 310.913 98.744, 310 86.750, 310 85.843 C 310 84.707, 318.112 79.898, 336.112 70.364 L 362.224 56.534 359.362 55.370 C 357.788 54.730, 351.325 53.059, 345 51.658 C 338.675 50.257, 329.130 48.636, 323.789 48.055 C 318.449 47.475, 308.099 47.048, 300.789 47.106 C 293.480 47.165, 283.450 47.766, 278.500 48.443 M 383.500 311.411 C 367.257 318.538, 362.232 321.178, 361.318 323.063 C 360.668 324.403, 349.755 349.726, 337.068 379.335 C 324.381 408.945, 314 433.357, 314 433.585 C 314 433.813, 315.688 434, 317.750 434 C 319.813 434, 326.900 433.114, 333.500 432.032 C 340.100 430.949, 350.225 428.731, 356 427.102 C 361.775 425.472, 371.415 422.078, 377.422 419.559 C 383.430 417.040, 391.236 413.362, 394.770 411.386 L 401.196 407.793 382.146 395.098 L 363.097 382.403 387.548 352.103 C 400.997 335.438, 411.995 321.285, 411.989 320.652 C 411.983 320.018, 411.296 317.250, 410.461 314.500 C 409.627 311.750, 408.489 307.813, 407.933 305.750 C 407.378 303.688, 406.378 302.044, 405.711 302.098 C 405.045 302.152, 395.050 306.343, 383.500 311.411" stroke="none" fill="#a4d7f5" fill-rule="evenodd"/><path d="M 400.250 117.728 C 402.313 117.944, 405.688 117.944, 407.750 117.728 C 409.813 117.513, 408.125 117.336, 404 117.336 C 399.875 117.336, 398.188 117.513, 400.250 117.728 M 415.250 131.728 C 417.313 131.944, 420.688 131.944, 422.750 131.728 C 424.813 131.513, 423.125 131.336, 419 131.336 C 414.875 131.336, 413.188 131.513, 415.250 131.728 M 168.118 199 C 163.725 200.925, 159.893 202.745, 159.604 203.044 C 159.314 203.344, 174.108 218.614, 192.478 236.978 L 225.878 270.367 232.998 267.501 C 236.913 265.925, 240.766 264.155, 241.559 263.567 C 242.719 262.708, 236.477 255.967, 209.554 229 L 176.107 195.500 168.118 199 M 428.768 208.725 C 430.565 208.947, 433.265 208.943, 434.768 208.715 C 436.271 208.486, 434.800 208.304, 431.500 208.310 C 428.200 208.315, 426.971 208.502, 428.768 208.725 M 77.505 302.168 C 72.558 304.362, 68.375 306.291, 68.211 306.455 C 68.047 306.620, 76.532 326.721, 87.066 351.126 C 97.600 375.531, 107.073 396.698, 108.116 398.163 C 109.160 399.629, 111.953 401.767, 114.323 402.914 C 116.779 404.103, 120.538 404.983, 123.066 404.960 C 125.505 404.938, 129.841 403.909, 132.703 402.673 L 137.905 400.426 133.281 396.963 C 130.737 395.058, 127.812 392.351, 126.780 390.947 C 125.748 389.543, 116.328 368.618, 105.847 344.447 C 95.366 320.276, 86.762 299.938, 86.728 299.250 C 86.694 298.563, 86.629 298.040, 86.583 298.089 C 86.537 298.138, 82.452 299.973, 77.505 302.168 M 273.500 350.143 C 269.650 351.838, 266.179 353.518, 265.786 353.877 C 265.393 354.235, 265.802 377.472, 266.694 405.514 C 267.586 433.556, 268.460 456.678, 268.636 456.895 C 268.812 457.112, 272.453 455.797, 276.728 453.973 C 281.003 452.149, 284.882 450.330, 285.348 449.930 C 285.814 449.531, 285.473 427.896, 284.589 401.852 C 283.705 375.808, 282.986 352.813, 282.991 350.750 C 282.997 348.396, 282.535 347.011, 281.750 347.030 C 281.063 347.047, 277.350 348.447, 273.500 350.143" stroke="none" fill="#cad8eb" fill-rule="evenodd"/><path d="M 396.199 109.750 L 396.397 117.500 396.742 110.293 L 397.086 103.086 404.293 102.742 L 411.500 102.397 403.750 102.199 L 396 102 396.199 109.750 M 411.424 139 L 411.500 146.500 419 146.500 L 426.500 146.500 426.576 139 L 426.651 131.500 426.282 138.750 L 425.912 146 419 146 L 412.088 146 411.718 138.750 L 411.349 131.500 411.424 139 M 178 194.965 C 176.797 195.759, 183.131 202.584, 210 229.441 L 243.500 262.926 268.250 252.236 C 281.863 246.356, 293 241.287, 293 240.971 C 293 240.655, 268.137 230.113, 237.750 217.545 C 207.363 204.976, 181.825 194.531, 181 194.333 C 180.175 194.136, 178.825 194.420, 178 194.965 M 410.500 210.612 C 406.650 211.464, 400.575 213.195, 397 214.458 C 393.425 215.721, 335.600 240.499, 268.500 269.521 L 146.500 322.289 119.998 308.745 L 93.497 295.202 89.870 297.062 L 86.244 298.923 104.955 342.211 C 115.246 366.020, 124.393 386.896, 125.282 388.602 C 126.171 390.307, 128.551 393.155, 130.572 394.929 C 132.593 396.703, 135.203 398.587, 136.373 399.114 C 138.114 399.900, 149.656 395.240, 200 373.429 C 233.825 358.774, 262.259 346.562, 263.188 346.291 C 264.539 345.897, 264.937 346.592, 265.188 349.775 L 265.500 353.751 273 350.405 C 277.125 348.566, 281.063 347.047, 281.750 347.030 C 282.606 347.009, 283.007 348.812, 283.022 352.750 C 283.035 355.913, 283.701 376.950, 284.503 399.500 C 285.305 422.050, 285.970 442.628, 285.981 445.229 L 286 449.957 288.250 448.917 C 290.024 448.098, 296.807 433.141, 320.323 378.189 L 350.145 308.500 419.823 278.506 C 469.096 257.296, 490.272 247.710, 492.136 245.773 C 493.585 244.266, 495.064 241.475, 495.421 239.569 C 495.828 237.400, 495.526 234.801, 494.612 232.615 C 493.810 230.695, 491.252 227.746, 488.927 226.062 C 486.602 224.378, 484.112 223, 483.394 223 C 482.676 223, 472.590 227.096, 460.980 232.102 C 449.370 237.109, 439.742 241.046, 439.584 240.852 C 439.426 240.659, 438.105 237.858, 436.648 234.629 C 435.192 231.400, 434 228.212, 434 227.544 C 434 226.875, 439.962 223.772, 447.250 220.646 C 454.538 217.521, 461.121 214.571, 461.881 214.092 C 462.827 213.495, 460.935 212.660, 455.881 211.442 C 450.890 210.241, 443.482 209.567, 433 209.363 C 421.722 209.144, 415.593 209.484, 410.500 210.612 M 413.506 235.140 C 409.689 236.768, 406.425 238.242, 406.252 238.414 C 406.080 238.587, 407.154 241.601, 408.638 245.114 C 410.123 248.626, 411.630 251.846, 411.988 252.269 C 412.346 252.692, 415.645 251.675, 419.319 250.009 C 422.994 248.343, 426 246.579, 426 246.089 C 426 245.599, 424.750 242.269, 423.223 238.689 L 420.446 232.179 413.506 235.140 M 386.500 246.669 C 383.200 248.054, 380.147 249.521, 379.715 249.929 C 379.283 250.337, 379.889 252.882, 381.061 255.585 C 382.233 258.288, 383.583 261.501, 384.061 262.724 L 384.931 264.948 391.692 261.914 C 395.410 260.246, 398.590 258.744, 398.757 258.576 C 398.924 258.409, 397.846 255.399, 396.362 251.886 C 394.877 248.374, 393.401 245.196, 393.081 244.825 C 392.762 244.453, 389.800 245.283, 386.500 246.669 M 332.338 270.164 L 325.176 273.205 328.201 280.353 C 329.864 284.284, 331.335 287.623, 331.469 287.773 C 331.603 287.923, 334.804 286.658, 338.583 284.963 C 342.361 283.268, 345.590 281.743, 345.758 281.576 C 345.925 281.408, 344.586 278.088, 342.781 274.197 L 339.500 267.123 332.338 270.164 M 305 282.015 C 300.201 284.134, 298.551 285.358, 298.694 286.693 C 298.801 287.687, 300.024 291.068, 301.413 294.207 L 303.937 299.914 310.968 296.808 C 314.836 295.100, 318 293.309, 318 292.829 C 318 292.349, 316.678 289.041, 315.063 285.478 C 313.447 281.915, 311.985 279.033, 311.813 279.072 C 311.641 279.112, 308.575 280.436, 305 282.015 M 276.807 294.289 L 270.114 297.500 273.160 304.662 L 276.205 311.824 283.353 308.799 C 287.284 307.136, 290.618 305.670, 290.761 305.543 C 290.905 305.415, 289.601 302.091, 287.863 298.155 C 286.124 294.220, 284.432 291.017, 284.101 291.039 C 283.770 291.060, 280.488 292.523, 276.807 294.289 M 249.250 306.028 C 245.813 307.612, 242.999 309.266, 242.997 309.704 C 242.996 310.142, 244.188 313.313, 245.647 316.750 C 247.106 320.188, 248.795 323.001, 249.400 323.003 C 250.005 323.004, 253.313 321.812, 256.750 320.353 C 260.188 318.894, 263 317.359, 263 316.943 C 263 316.527, 261.669 313.219, 260.042 309.593 C 258.415 305.967, 256.727 303.033, 256.292 303.074 C 255.856 303.115, 252.688 304.444, 249.250 306.028 M 222.500 317.635 C 219.200 319.039, 216.148 320.520, 215.717 320.927 C 215.286 321.333, 216.280 324.666, 217.925 328.333 C 219.570 332, 221.356 335, 221.892 335 C 222.429 335, 225.598 333.816, 228.934 332.369 C 232.270 330.922, 235.001 329.235, 235.003 328.619 C 235.004 328.004, 233.812 324.688, 232.353 321.250 C 230.894 317.813, 229.430 315.018, 229.100 315.041 C 228.770 315.064, 225.800 316.231, 222.500 317.635 M 194.255 329.832 C 190.821 331.300, 188.008 333.007, 188.005 333.626 C 188.002 334.245, 189.167 337.395, 190.592 340.626 C 192.018 343.857, 193.353 346.672, 193.559 346.883 C 193.765 347.094, 197.092 345.969, 200.953 344.383 C 206.749 342.003, 207.870 341.178, 207.387 339.651 C 207.066 338.634, 205.728 335.372, 204.414 332.401 C 203.100 329.430, 201.682 327.037, 201.263 327.082 C 200.843 327.128, 197.690 328.365, 194.255 329.832" stroke="none" fill="#e5ecf5" fill-rule="evenodd"/><path d="M 281.051 32.148 C 276.404 32.633, 267.179 34.130, 260.551 35.474 C 253.923 36.818, 243.608 39.540, 237.628 41.522 C 231.649 43.504, 222.308 47.099, 216.870 49.509 C 211.433 51.920, 202.825 56.346, 197.742 59.345 C 192.659 62.344, 184.663 67.533, 179.973 70.877 C 175.284 74.221, 167.539 80.543, 162.764 84.927 C 157.988 89.311, 150.800 96.462, 146.791 100.819 C 142.781 105.176, 136.826 112.458, 133.557 117 C 130.288 121.543, 124.771 130.039, 121.297 135.880 C 117.822 141.721, 112.693 151.900, 109.899 158.500 C 107.105 165.100, 103.305 175.900, 101.455 182.500 C 99.605 189.100, 97.604 196.975, 97.008 200 L 95.926 205.500 84.789 211.500 C 78.664 214.800, 67.003 221.883, 58.876 227.240 C 50.750 232.597, 40.140 240.284, 35.300 244.322 C 30.460 248.361, 23.622 254.752, 20.104 258.525 C 16.586 262.298, 11.515 268.744, 8.835 272.850 C 6.155 276.956, 3.023 283.405, 1.876 287.182 C 0.311 292.336, -0.117 295.975, 0.161 301.774 C 0.428 307.348, 1.208 310.893, 2.961 314.500 C 4.297 317.250, 7.912 322.034, 10.996 325.131 C 15.071 329.224, 19.182 332.002, 26.051 335.305 C 31.248 337.804, 38.875 340.768, 43 341.892 C 47.125 343.016, 54.259 344.581, 58.853 345.371 C 63.448 346.161, 67.559 347.188, 67.990 347.653 C 68.421 348.119, 74.104 360.865, 80.620 375.978 C 87.135 391.091, 93.839 405.266, 95.516 407.478 C 97.194 409.690, 100.746 412.966, 103.409 414.759 C 106.073 416.551, 110.750 418.744, 113.804 419.631 C 117.444 420.690, 121.458 421.077, 125.461 420.755 C 130.208 420.374, 135.779 418.456, 150.500 412.133 C 160.913 407.660, 169.790 404, 170.226 404 C 170.662 404, 174.395 406.496, 178.520 409.547 C 182.646 412.598, 189.729 417.356, 194.260 420.120 C 198.792 422.884, 206.550 427.081, 211.500 429.446 C 216.450 431.811, 224.775 435.333, 230 437.273 C 235.225 439.213, 242.250 441.561, 245.611 442.493 L 251.722 444.186 252.361 451.744 C 252.712 455.901, 253 464.232, 253 470.258 C 253 479.520, 253.229 481.126, 254.480 480.646 C 255.294 480.334, 266.466 475.533, 279.307 469.978 L 302.655 459.878 304.741 454.939 L 306.828 450 313.664 449.982 C 317.424 449.972, 325 449.323, 330.500 448.541 C 336 447.758, 344.775 446.171, 350 445.014 C 355.225 443.858, 364.225 441.323, 370 439.381 C 375.775 437.440, 386.800 432.781, 394.500 429.028 C 402.200 425.276, 413.291 418.999, 419.146 415.080 C 425.002 411.161, 434.677 403.746, 440.646 398.601 C 446.616 393.457, 454.561 385.826, 458.302 381.644 C 462.044 377.462, 468.053 370.094, 471.656 365.270 C 475.259 360.447, 480.659 352.342, 483.655 347.261 C 486.652 342.179, 490.709 334.529, 492.672 330.261 C 494.634 325.992, 497.937 317.775, 500.011 312 C 502.085 306.225, 504.932 296.775, 506.337 291 C 507.742 285.225, 509.591 275.422, 510.446 269.216 C 511.324 262.837, 512 250.870, 512 241.689 C 512 232.756, 511.538 221.634, 510.974 216.974 C 510.410 212.313, 509.016 203.775, 507.875 198 C 506.735 192.225, 503.866 181.599, 501.501 174.386 C 499.136 167.173, 494.761 156.148, 491.778 149.886 C 488.796 143.624, 484.033 134.764, 481.194 130.197 C 478.355 125.631, 473.445 118.431, 470.282 114.197 C 467.119 109.964, 460.024 101.837, 454.515 96.139 C 449.007 90.440, 441.080 82.920, 436.899 79.427 C 432.719 75.934, 424.844 70.091, 419.399 66.443 C 413.955 62.794, 403.391 56.781, 395.924 53.080 C 388.458 49.379, 376.609 44.442, 369.593 42.109 C 362.578 39.777, 351.587 36.800, 345.169 35.495 C 338.751 34.189, 328.584 32.644, 322.576 32.061 C 316.568 31.477, 306.668 31.060, 300.576 31.133 C 294.484 31.206, 285.698 31.663, 281.051 32.148 M 292.500 46.620 C 289.750 46.815, 283.271 47.471, 278.103 48.078 C 272.935 48.685, 263.367 50.485, 256.841 52.079 C 250.315 53.672, 240.594 56.607, 235.238 58.600 C 229.882 60.594, 220.755 64.641, 214.955 67.593 C 209.155 70.546, 200.380 75.644, 195.455 78.923 C 190.530 82.202, 185.205 85.949, 183.623 87.249 L 180.746 89.614 217.098 109.574 L 253.450 129.534 254.096 133.517 C 254.451 135.708, 255.041 143.463, 255.408 150.750 L 256.074 164 248.635 164 L 241.197 164 240.527 152.250 C 240.159 145.787, 239.763 140.119, 239.646 139.653 C 239.530 139.187, 223.475 130.052, 203.968 119.353 L 168.500 99.901 162.155 106.701 C 158.665 110.440, 152.965 117.118, 149.487 121.539 C 146.009 125.961, 140.921 133.193, 138.181 137.612 C 135.440 142.030, 131.185 149.663, 128.725 154.573 C 126.265 159.483, 122.656 167.775, 120.705 173 C 118.754 178.225, 116.021 187, 114.632 192.500 C 113.242 198, 111.608 205.633, 111 209.461 C 110.392 213.290, 109.502 221.953, 109.023 228.712 C 108.513 235.909, 108.532 246.359, 109.069 253.927 C 109.573 261.036, 110.881 271.475, 111.976 277.124 C 113.071 282.774, 114.537 287.926, 115.234 288.573 C 115.930 289.221, 123.355 293.231, 131.733 297.485 L 146.966 305.220 178.985 291.366 L 211.004 277.513 171.325 237.825 L 131.646 198.137 135.073 196.587 C 136.958 195.734, 147.893 190.990, 159.373 186.045 L 180.247 177.053 209.373 189.134 C 225.393 195.778, 239.579 201.630, 240.899 202.139 L 243.297 203.064 242.615 191.652 C 242.018 181.666, 242.135 180.162, 243.548 179.620 C 244.437 179.279, 247.760 179, 250.934 179 L 256.704 179 257.346 187.250 C 257.699 191.787, 257.998 198.200, 258.009 201.500 C 258.021 204.800, 258.361 208.019, 258.765 208.654 C 259.169 209.289, 271.650 214.861, 286.500 221.038 C 301.350 227.215, 313.967 232.283, 314.537 232.301 C 315.107 232.319, 325.232 228.175, 337.037 223.092 C 348.842 218.010, 358.857 213.505, 359.294 213.081 C 359.731 212.658, 361.644 203.834, 363.544 193.473 C 365.445 183.112, 367 174.310, 367 173.913 C 367 173.516, 355.413 166.546, 341.250 158.424 C 327.087 150.303, 315.432 143.622, 315.349 143.579 C 315.266 143.535, 314.091 130.450, 312.738 114.500 L 310.278 85.500 311.820 84.257 C 312.668 83.574, 324.535 77.077, 338.192 69.818 C 351.848 62.560, 362.680 56.312, 362.261 55.932 C 361.842 55.553, 357 54.092, 351.500 52.687 C 346 51.282, 337 49.460, 331.500 48.639 C 326 47.818, 316.100 46.948, 309.500 46.706 C 302.900 46.464, 295.250 46.425, 292.500 46.620 M 353.192 78.667 L 325.884 93.243 326.578 101.372 C 326.960 105.842, 327.774 115.101, 328.386 121.947 L 329.500 134.395 353.034 147.947 C 365.978 155.401, 378.173 162.457, 380.134 163.628 L 383.699 165.755 380.392 183.628 C 378.573 193.457, 377.065 202.449, 377.042 203.608 L 377 205.717 385.406 202.341 C 390.030 200.485, 397.342 198.051, 401.656 196.932 C 405.970 195.814, 414.560 194.381, 420.745 193.748 C 429.349 192.868, 434.515 192.880, 442.745 193.799 C 448.660 194.459, 457.775 196.137, 463 197.526 C 468.225 198.915, 477.450 202.471, 483.500 205.428 C 489.550 208.385, 494.595 210.716, 494.712 210.607 C 494.829 210.498, 494.031 206.036, 492.939 200.690 C 491.847 195.345, 489.376 186.140, 487.449 180.236 C 485.522 174.331, 481.046 163.515, 477.502 156.199 C 473.959 148.883, 468.324 138.809, 464.981 133.811 C 461.639 128.814, 456.277 121.511, 453.067 117.583 C 449.858 113.654, 442.313 105.729, 436.302 99.970 C 430.291 94.212, 421.234 86.575, 416.174 83 C 411.115 79.425, 401.930 73.688, 395.763 70.250 C 389.597 66.813, 383.640 64.021, 382.526 64.046 C 381.412 64.071, 368.211 70.651, 353.192 78.667 M 169.946 197.723 C 164.201 200.205, 159.173 202.533, 158.772 202.896 C 158.372 203.259, 173.266 218.772, 191.869 237.369 L 225.694 271.183 260.324 256.341 C 279.371 248.179, 294.958 241.275, 294.961 241 C 294.964 240.725, 269.925 230.150, 239.320 217.500 C 208.715 204.850, 182.936 194.210, 182.033 193.855 C 181.079 193.479, 176.021 195.098, 169.946 197.723 M 415.500 209.100 C 412.200 209.571, 405.810 211.099, 401.299 212.495 C 396.789 213.892, 366.189 226.667, 333.299 240.884 C 300.410 255.102, 252.350 275.868, 226.500 287.030 C 200.650 298.193, 172.075 310.565, 163 314.524 L 146.500 321.722 120.171 308.239 L 93.843 294.757 80.516 300.511 L 67.190 306.266 70.463 313.883 C 72.263 318.072, 81.009 338.375, 89.898 359 C 103.704 391.034, 106.622 397.037, 109.917 400.181 C 112.077 402.242, 115.622 404.360, 117.971 404.992 C 120.279 405.614, 123.592 405.816, 125.334 405.442 C 127.075 405.068, 132.550 403.069, 137.500 401 C 142.450 398.931, 166.525 388.582, 191 378.003 C 215.475 367.423, 241.731 356.087, 249.346 352.813 C 256.962 349.538, 263.461 347.127, 263.789 347.455 C 264.116 347.783, 265.179 371.777, 266.150 400.776 C 267.121 429.774, 268.047 454.500, 268.208 455.723 L 268.500 457.946 279 453.422 C 284.775 450.934, 289.996 448.359, 290.603 447.699 C 291.209 447.040, 304.924 415.580, 321.080 377.790 L 350.456 309.079 413.478 281.910 C 448.140 266.967, 480.154 253.014, 484.620 250.904 C 491.188 247.800, 493.052 246.411, 494.370 243.632 C 495.267 241.743, 496 238.781, 496 237.049 C 496 235.318, 495.324 232.594, 494.499 230.997 C 493.673 229.401, 491.004 226.723, 488.569 225.047 C 486.133 223.371, 483.852 222, 483.501 222 C 483.150 222, 473.499 226.050, 462.054 231 C 450.610 235.950, 440.854 239.997, 440.373 239.992 C 439.893 239.988, 438.293 237.071, 436.818 233.509 C 435.343 229.948, 434.443 226.853, 434.818 226.632 C 435.193 226.412, 441.575 223.658, 449 220.514 C 456.425 217.369, 462.895 214.425, 463.377 213.971 C 463.860 213.517, 462.285 212.610, 459.877 211.956 C 457.470 211.302, 452.125 210.160, 448 209.418 C 443.875 208.677, 436.225 208.109, 431 208.157 C 425.775 208.205, 418.800 208.629, 415.500 209.100 M 81.788 231.449 C 75.896 234.963, 67.092 240.567, 62.224 243.901 C 57.356 247.235, 49.126 253.511, 43.936 257.848 C 38.746 262.184, 31.890 268.830, 28.699 272.616 C 25.509 276.402, 21.282 282.754, 19.306 286.731 C 16.511 292.359, 15.714 295.168, 15.714 299.400 C 15.714 303.447, 16.377 305.968, 18.308 309.262 C 19.734 311.696, 22.501 314.907, 24.456 316.399 C 26.411 317.890, 30.821 320.425, 34.256 322.032 C 37.690 323.639, 44.059 325.865, 48.410 326.977 C 52.760 328.090, 57.148 329, 58.160 329 C 59.172 329, 60 328.867, 60 328.704 C 60 328.542, 57.106 321.686, 53.569 313.468 C 50.033 305.251, 47.262 298.405, 47.412 298.255 C 47.562 298.105, 58.443 293.329, 71.592 287.642 L 95.500 277.302 95.418 274.901 C 95.373 273.580, 94.766 266.647, 94.070 259.493 C 93.374 252.339, 92.961 241.651, 93.152 235.742 C 93.343 229.833, 93.275 225.012, 93 225.028 C 92.725 225.045, 87.679 227.935, 81.788 231.449 M 413.500 235.711 C 410.200 237.181, 407.318 238.517, 407.095 238.680 C 406.872 238.843, 407.935 241.907, 409.458 245.488 C 410.980 249.070, 412.413 252, 412.643 252 C 412.872 252, 415.859 250.828, 419.280 249.395 C 422.701 247.962, 425.623 246.677, 425.773 246.539 C 425.923 246.401, 424.704 243.298, 423.065 239.644 C 421.425 235.990, 419.952 233.009, 419.792 233.019 C 419.631 233.030, 416.800 234.241, 413.500 235.711 M 386.053 247.588 C 383.057 248.948, 380.400 250.267, 380.148 250.519 C 379.896 250.771, 380.935 253.907, 382.458 257.488 C 383.980 261.070, 385.343 264, 385.488 264 C 385.633 264, 388.395 262.833, 391.626 261.408 C 394.857 259.982, 397.670 258.649, 397.879 258.446 C 398.087 258.242, 397.007 255.134, 395.479 251.538 C 393.950 247.942, 392.430 245.026, 392.100 245.058 C 391.770 245.089, 389.049 246.228, 386.053 247.588 M 491.975 263.954 C 491.136 264.446, 475.161 271.438, 456.475 279.492 C 437.789 287.547, 422.172 294.456, 421.772 294.847 C 421.372 295.237, 422.907 302.145, 425.185 310.197 L 429.325 324.839 409.413 349.492 C 398.461 363.051, 388.691 375.216, 387.702 376.524 L 385.904 378.903 400.892 388.928 L 415.881 398.952 421.190 394.810 C 424.111 392.532, 430.211 387.327, 434.747 383.243 C 439.282 379.159, 446.451 371.697, 450.678 366.659 C 454.905 361.622, 461.395 352.899, 465.101 347.276 C 468.807 341.653, 474.319 331.978, 477.350 325.776 C 480.381 319.574, 484.431 309.947, 486.350 304.383 C 488.270 298.819, 490.957 289.144, 492.323 282.883 C 493.688 276.622, 495.032 269.587, 495.308 267.250 C 495.644 264.405, 495.428 263.010, 494.655 263.030 C 494.020 263.047, 492.814 263.463, 491.975 263.954 M 332.500 270.744 C 329.200 272.181, 326.374 273.441, 326.220 273.542 C 326.065 273.644, 327.159 276.601, 328.651 280.114 C 330.142 283.626, 331.496 286.678, 331.660 286.896 C 331.824 287.114, 334.780 286.040, 338.229 284.509 C 341.678 282.979, 344.670 281.581, 344.879 281.402 C 345.087 281.223, 344.007 278.134, 342.479 274.538 C 340.950 270.942, 339.430 268.030, 339.100 268.066 C 338.770 268.102, 335.800 269.307, 332.500 270.744 M 304.681 282.723 C 299.718 284.933, 298.941 285.630, 299.401 287.463 C 299.698 288.644, 300.890 291.758, 302.051 294.382 C 303.254 297.103, 304.663 298.943, 305.330 298.664 C 305.974 298.396, 308.863 297.177, 311.750 295.955 C 314.637 294.733, 317 293.174, 317 292.491 C 317 291.808, 315.881 288.718, 314.513 285.624 C 313.145 282.531, 311.682 280.030, 311.263 280.066 C 310.843 280.102, 307.881 281.298, 304.681 282.723 M 277 294.669 C 273.975 296.048, 271.347 297.326, 271.160 297.511 C 270.972 297.696, 272.069 300.694, 273.596 304.174 C 275.124 307.653, 276.453 310.626, 276.550 310.780 C 276.648 310.935, 279.601 309.841, 283.114 308.349 C 286.626 306.858, 289.632 305.550, 289.793 305.443 C 289.954 305.336, 288.861 302.267, 287.365 298.624 C 285.869 294.981, 284.162 292.037, 283.573 292.082 C 282.983 292.127, 280.025 293.291, 277 294.669 M 384.073 310.808 L 361.697 320.500 337.324 377.393 C 323.919 408.683, 313.122 434.455, 313.330 434.663 C 313.538 434.871, 318.161 434.557, 323.604 433.965 C 329.047 433.373, 338.622 431.753, 344.883 430.365 C 351.144 428.976, 360.661 426.310, 366.033 424.440 C 371.405 422.571, 379.283 419.453, 383.541 417.513 C 387.800 415.572, 393.728 412.586, 396.715 410.877 L 402.146 407.770 383.323 395.248 C 372.970 388.362, 364.360 382.611, 364.190 382.470 C 364.019 382.328, 373.436 370.352, 385.116 355.856 C 396.796 341.360, 407.847 327.656, 409.673 325.401 L 412.993 321.302 410.066 311.554 C 408.457 306.193, 406.984 301.651, 406.794 301.461 C 406.605 301.271, 396.380 305.477, 384.073 310.808 M 249.302 306.707 L 243.103 309.311 244.552 312.655 C 245.348 314.495, 246.682 317.578, 247.516 319.507 L 249.032 323.013 252.766 321.409 C 254.820 320.527, 257.738 319.355, 259.250 318.805 C 260.762 318.255, 262 317.228, 262 316.523 C 262 315.818, 260.842 312.712, 259.427 309.621 C 258.011 306.529, 256.549 304.023, 256.177 304.052 C 255.805 304.081, 252.711 305.275, 249.302 306.707 M 222.053 318.588 C 219.057 319.948, 216.443 321.223, 216.245 321.422 C 216.046 321.621, 217.082 324.645, 218.547 328.142 C 220.012 331.639, 221.317 334.616, 221.447 334.759 C 221.578 334.901, 224.684 333.658, 228.350 331.995 L 235.016 328.973 233.410 325.237 C 232.528 323.181, 231.355 320.262, 230.805 318.750 C 230.255 317.238, 229.286 316.026, 228.652 316.058 C 228.018 316.089, 225.049 317.228, 222.053 318.588 M 193.800 330.799 L 188.100 333.500 190.935 340 C 192.495 343.575, 194.220 346.405, 194.769 346.289 C 195.319 346.172, 198.329 344.945, 201.459 343.561 C 206.374 341.387, 207.058 340.757, 206.479 338.933 C 206.110 337.772, 204.931 334.837, 203.857 332.411 C 202.784 329.985, 201.365 328.022, 200.703 328.049 C 200.041 328.076, 196.935 329.314, 193.800 330.799 M 219 382.002 C 202.775 389.074, 188.827 395.277, 188.004 395.787 C 186.843 396.506, 188.636 398.113, 196.004 402.959 C 201.227 406.394, 210.900 411.836, 217.500 415.052 C 224.100 418.268, 234.156 422.497, 239.847 424.450 C 245.538 426.402, 250.646 428, 251.200 428 C 251.862 428, 251.993 421.076, 251.584 407.750 C 251.243 396.613, 250.704 383.337, 250.388 378.250 C 250.072 373.163, 249.518 369.032, 249.157 369.072 C 248.796 369.111, 235.225 374.929, 219 382.002" stroke="none" fill="#050505" fill-rule="evenodd"/></svg>